{
    "asset" : {
        "generator" : "Khronos glTF Blender I/O v3.3.32",
        "version" : "2.0"
    },
    "scene" : 0,
    "scenes" : [
        {
            "name" : "Scene",
            "nodes" : [
                0
            ]
        }
    ],
    "nodes" : [
        {
            "mesh" : 0,
            "name" : "Chisel.001",
            "rotation" : [
                -0.6880682706832886,
                0,
                0,
                0.7256460189819336
            ],
            "scale" : [
                1.0149699449539185,
                1.014970064163208,
                12.190001487731934
            ],
            "translation" : [
                20.730751037597656,
                0.3086262345314026,
                1.2097511291503906
            ]
        }
    ],
    "materials" : [
        {
            "doubleSided" : true,
            "name" : "Wood.001",
            "pbrMetallicRoughness" : {
                "baseColorTexture" : {
                    "index" : 0
                },
                "metallicFactor" : 0,
                "roughnessFactor" : 0.20000000298023224
            }
        },
        {
            "doubleSided" : true,
            "name" : "Metal.001",
            "pbrMetallicRoughness" : {
                "baseColorTexture" : {
                    "index" : 1
                },
                "roughnessFactor" : 0.20000000298023224
            }
        }
    ],
    "meshes" : [
        {
            "name" : "Cylinder.001",
            "primitives" : [
                {
                    "attributes" : {
                        "POSITION" : 0,
                        "TEXCOORD_0" : 1
                    },
                    "indices" : 2,
                    "material" : 0
                },
                {
                    "attributes" : {
                        "POSITION" : 3,
                        "TEXCOORD_0" : 4
                    },
                    "indices" : 5,
                    "material" : 1
                }
            ]
        }
    ],
    "textures" : [
        {
            "sampler" : 0,
            "source" : 0
        },
        {
            "sampler" : 0,
            "source" : 1
        }
    ],
    "images" : [
        {
            "mimeType" : "image/jpeg",
            "name" : "wood_texture",
            "uri" : "textures/wood_texture.jpg"
        },
        {
            "mimeType" : "image/jpeg",
            "name" : "concrete_floor",
            "uri" : "textures/concrete_floor.jpg"
        }
    ],
    "accessors" : [
        {
            "bufferView" : 0,
            "componentType" : 5126,
            "count" : 884,
            "max" : [
                2.072418689727783,
                1.8443264961242676,
                1.3157899379730225
            ],
            "min" : [
                -2.072418689727783,
                -1.849649429321289,
                0.2638348937034607
            ],
            "type" : "VEC3"
        },
        {
            "bufferView" : 1,
            "componentType" : 5126,
            "count" : 884,
            "type" : "VEC2"
        },
        {
            "bufferView" : 2,
            "componentType" : 5123,
            "count" : 3738,
            "type" : "SCALAR"
        },
        {
            "bufferView" : 3,
            "componentType" : 5126,
            "count" : 894,
            "max" : [
                1.3853514194488525,
                1.1068180799484253,
                0.2638348937034607
            ],
            "min" : [
                -1.3853514194488525,
                -1.1121411323547363,
                -1.384103775024414
            ],
            "type" : "VEC3"
        },
        {
            "bufferView" : 4,
            "componentType" : 5126,
            "count" : 894,
            "type" : "VEC2"
        },
        {
            "bufferView" : 5,
            "componentType" : 5123,
            "count" : 4059,
            "type" : "SCALAR"
        }
    ],
    "bufferViews" : [
        {
            "buffer" : 0,
            "byteLength" : 10608,
            "byteOffset" : 0,
            "target" : 34962
        },
        {
            "buffer" : 0,
            "byteLength" : 7072,
            "byteOffset" : 10608,
            "target" : 34962
        },
        {
            "buffer" : 0,
            "byteLength" : 7476,
            "byteOffset" : 17680,
            "target" : 34963
        },
        {
            "buffer" : 0,
            "byteLength" : 10728,
            "byteOffset" : 25156,
            "target" : 34962
        },
        {
            "buffer" : 0,
            "byteLength" : 7152,
            "byteOffset" : 35884,
            "target" : 34962
        },
        {
            "buffer" : 0,
            "byteLength" : 8118,
            "byteOffset" : 43036,
            "target" : 34963
        }
    ],
    "samplers" : [
        {
            "magFilter" : 9729,
            "minFilter" : 9987
        }
    ],
    "buffers" : [
        {
            "byteLength" : 51156,
            "uri" : "Chisel.bin"
        }
    ]
}
